<?xml version="1.0" standalone="no"?>
<!DOCTYPE svg PUBLIC "-//W3C//DTD SVG 20010904//EN"
 "http://www.w3.org/TR/2001/REC-SVG-20010904/DTD/svg10.dtd">
<svg version="1.0" xmlns="http://www.w3.org/2000/svg"
 width="650.000000pt" height="650.000000pt" viewBox="0 0 650.000000 650.000000"
 preserveAspectRatio="xMidYMid meet">
<metadata>
Created by potrace 1.14, written by Peter Selinger 2001-2017
</metadata>
<g transform="translate(0.000000,650.000000) scale(0.100000,-0.100000)"
fill="#000000" stroke="none">
<path d="M2060 6241 c0 -4 -29 -172 -66 -372 -70 -389 -71 -393 -148 -476 -52
-58 -90 -60 -112 -6 -29 68 -59 99 -101 101 -21 2 -49 11 -63 20 -55 40 -165
-5 -195 -80 -15 -38 -15 -44 5 -104 21 -61 21 -64 3 -90 -14 -23 -18 -50 -19
-139 0 -60 -6 -137 -12 -169 -6 -32 -9 -63 -6 -68 11 -17 17 -84 16 -163 -1
-78 -2 -81 -36 -110 -37 -32 -37 -29 -53 -226 -5 -74 -5 -78 29 -135 37 -64
59 -127 64 -187 2 -21 9 -47 14 -57 6 -10 10 -37 10 -60 0 -38 7 -50 75 -126
41 -46 75 -88 75 -92 0 -13 -50 -56 -95 -82 -22 -13 -42 -26 -45 -29 -3 -4
-11 -7 -19 -9 -36 -8 -100 -55 -111 -82 -7 -17 -16 -30 -20 -30 -4 0 -18 -10
-32 -22 -29 -26 -46 -84 -53 -177 -3 -37 -13 -78 -24 -96 -10 -18 -22 -48 -26
-66 -7 -33 -34 -78 -65 -109 -8 -8 -24 -27 -35 -41 -11 -14 -34 -33 -52 -44
-17 -10 -39 -35 -48 -54 -14 -32 -14 -41 -1 -77 13 -37 12 -46 -6 -99 -28 -83
-20 -104 55 -140 53 -26 62 -35 68 -65 4 -19 5 -55 2 -79 -5 -35 -12 -47 -38
-63 -21 -12 -35 -29 -38 -48 -6 -28 -8 -28 -39 -18 -71 22 -111 14 -134 -27
-10 -19 -21 -35 -25 -35 -10 0 -59 -96 -59 -117 0 -12 16 -27 47 -43 26 -14
54 -31 61 -38 7 -6 20 -12 28 -12 8 0 14 -3 14 -8 0 -9 122 -78 133 -74 4 1 7
-1 7 -6 0 -4 21 -19 48 -32 26 -14 49 -27 52 -31 7 -7 168 -99 174 -99 3 0 24
-13 48 -29 24 -15 68 -42 98 -58 47 -26 275 -156 320 -183 8 -5 78 -45 155
-90 77 -44 147 -85 155 -90 8 -6 31 -18 50 -28 19 -9 37 -19 40 -23 3 -3 55
-33 115 -68 61 -34 117 -66 125 -71 56 -34 261 -150 265 -150 3 0 18 -8 33
-19 40 -27 438 -251 448 -251 4 0 15 -6 23 -14 9 -7 41 -27 71 -43 30 -16 111
-62 180 -101 91 -51 139 -72 175 -77 28 -3 64 -8 80 -10 36 -5 386 -53 435
-61 335 -49 666 -95 745 -104 55 -6 114 -13 130 -15 17 -2 62 -7 102 -11 70
-6 72 -6 77 17 6 23 52 386 61 479 3 25 11 92 19 150 8 58 16 125 19 150 3 25
15 118 26 207 12 89 21 166 20 170 -1 4 0 19 4 33 3 14 8 48 11 75 3 28 12 97
20 155 8 58 17 132 21 165 3 33 8 69 10 80 2 11 7 44 9 74 3 29 8 68 11 85 3
17 7 49 9 71 2 22 25 202 50 400 25 198 47 378 50 400 5 39 211 1680 221 1760
68 532 103 806 111 892 8 74 37 62 -241 98 -110 14 -267 34 -350 45 -82 11
-204 27 -270 35 -144 19 -105 13 -516 74 -184 27 -354 53 -379 56 -241 33
-1372 219 -1618 265 -56 11 -117 22 -135 24 -17 3 -67 12 -110 20 -89 18 -127
20 -127 7z"/>
</g>
</svg>
